<svg width="776" height="446" xmlns="http://www.w3.org/2000/svg" xmlns:xlink="http://www.w3.org/1999/xlink" xml:space="preserve" overflow="hidden"><g transform="translate(-523 -896)"><path d="M538 1119 911 905 1284 1119 911 1333Z" stroke="#000000" stroke-width="13.75" stroke-miterlimit="8" fill="none" fill-rule="evenodd"/><text font-family="Segoe UI Black,Segoe UI Black_MSFontService,sans-serif" font-weight="900" font-size="73" transform="matrix(1 0 0 1 834.68 1278)">JUN</text><path d="M1052.36 1055.07C1047.8 1053.39 1044.31 1055.95 1041.73 1062.95 1039.12 1070.04 1037.92 1081.01 1037.92 1095.68 1037.92 1110.02 1039.1 1121.46 1041.7 1129.84 1044.28 1138.12 1047.65 1142.55 1051.99 1143.06 1054.64 1143.37 1056.98 1141.96 1059.14 1138.87 1061.27 1135.8 1062.86 1131.23 1064.06 1125.19 1065.25 1119.2 1065.8 1111.94 1065.8 1103.39 1065.8 1090.01 1064.65 1079.06 1062.2 1070.5 1059.73 1061.84 1056.54 1056.6 1052.36 1055.07ZM900.495 1004.75C895.927 1006.43 892.482 1013.09 889.862 1024.43 887.266 1035.66 886.053 1050.69 886.053 1069.57 886.053 1088.03 887.269 1102.21 889.836 1112.16 892.43 1122.22 895.783 1127.01 900.125 1126.5 902.773 1126.19 905.109 1123.44 907.267 1118.32 908.419 1115.59 909.36 1112.25 910.236 1108.34 911.008 1105.13 911.65 1101.45 912.186 1097.3 913.379 1088.47 913.932 1077.85 913.932 1065.4 913.932 1045.91 912.788 1030.15 910.335 1018.08 907.871 1007.57 904.674 1003.22 900.495 1004.75ZM1100.9 1038.61C1108.1 1042.18 1115.29 1045.77 1122.49 1049.34 1130.86 1073.66 1139.12 1096.77 1148.14 1118.27 1148.47 1119.09 1148.84 1120.09 1149.31 1121.22 1149.78 1122.35 1150.21 1123.53 1150.68 1124.71 1151.15 1125.89 1151.56 1127.04 1151.98 1128.14 1152.4 1129.24 1152.69 1130.21 1152.91 1131.04 1152.98 1131.06 1153.05 1131.08 1153.12 1131.09 1152.9 1128.59 1152.8 1124.32 1152.8 1118.28 1152.8 1100.33 1152.8 1082.37 1152.8 1064.41 1159.86 1067.91 1166.9 1071.43 1173.96 1074.93 1173.96 1111.53 1173.96 1148.14 1173.96 1184.74 1167.28 1184.69 1160.59 1184.62 1153.91 1184.57 1144.7 1164.68 1136.09 1143.12 1127.14 1120.31 1124.95 1114.72 1123.33 1109.6 1121.96 1105.09 1121.89 1105.07 1121.82 1105.04 1121.75 1105.02 1121.96 1111.75 1122.06 1119.26 1122.06 1127.55 1122.06 1146.47 1122.06 1165.38 1122.06 1184.3 1115.01 1184.24 1107.96 1184.17 1100.9 1184.12 1100.9 1135.61 1100.9 1087.11 1100.9 1038.61ZM943.215 960.203C965.11 971.061 986.971 981.987 1008.87 992.845 1008.87 1007.81 1008.87 1022.78 1008.87 1037.74 1001.68 1035.09 994.577 1032.19 987.388 1029.54 987.388 1080.74 987.388 1131.95 987.388 1183.15 979.735 1183.09 972.082 1183.01 964.429 1182.95 964.429 1128.89 964.429 1074.83 964.429 1020.77 957.328 1018.15 950.316 1015.29 943.215 1012.66 943.215 995.176 943.215 977.69 943.215 960.203ZM759.08 1018.94C770.495 1013.28 781.893 1007.59 793.308 1001.93 796.822 1033.38 800.184 1065.46 803.729 1098.14 803.984 1100.17 804.291 1104.33 804.708 1110.64 805.126 1116.96 805.366 1121.86 805.475 1125.33 805.581 1125.31 805.686 1125.29 805.792 1125.28 806.191 1117.27 806.773 1107.75 807.644 1096.71 811.018 1061.71 814.152 1026.12 817.378 989.959 828.616 984.385 839.838 978.777 851.076 973.204 851.076 1043.13 851.076 1113.06 851.076 1183 843.564 1183.05 836.052 1183.13 828.54 1183.19 828.54 1146.87 828.54 1110.55 828.54 1074.23 828.54 1063.98 828.657 1052.66 828.91 1040.28 828.965 1037.21 829.015 1034.13 829.069 1031.06 828.857 1031.14 828.647 1031.22 828.434 1031.3 827.282 1047.3 826.461 1058.36 825.842 1064.51 822.041 1104.83 818.443 1144.44 814.68 1183.31 807.521 1183.36 800.361 1183.43 793.202 1183.49 789.338 1147.95 785.566 1113.15 781.511 1079.14 781.184 1076.62 780.4 1066.93 779.024 1050.18 778.812 1050.26 778.602 1050.34 778.389 1050.42 778.895 1077.49 779.13 1094.47 779.13 1101.29 779.13 1128.73 779.13 1156.17 779.13 1183.61 772.447 1183.66 765.764 1183.73 759.08 1183.78 759.08 1128.83 759.08 1073.89 759.08 1018.94ZM721.231 1037.76C728.853 1033.98 736.463 1030.18 744.085 1026.4 744.085 1078.9 744.085 1131.4 744.085 1183.91 736.467 1183.97 728.849 1184.04 721.231 1184.1 721.231 1135.32 721.231 1086.54 721.231 1037.76ZM646.48 1074.93C654.102 1071.15 661.712 1067.35 669.333 1063.57 669.333 1082.75 669.333 1101.92 669.333 1121.1 669.422 1121.08 669.509 1121.05 669.598 1121.03 670.291 1117.81 671.004 1114.76 671.873 1111.91 677.155 1093.6 682.028 1074.51 687.003 1054.78 696.036 1050.3 705.055 1045.79 714.088 1041.32 707.039 1067.07 700.115 1091.77 692.557 1115.14 700.843 1136.64 708.466 1159.75 716.151 1184.14 706.911 1184.22 697.671 1184.31 688.431 1184.38 682.922 1166.43 677.477 1149.21 671.608 1132.93 670.455 1129.11 669.816 1126.47 669.598 1125 669.509 1125.02 669.422 1125.05 669.333 1125.07 669.333 1144.89 669.333 1164.72 669.333 1184.54 661.715 1184.6 654.098 1184.68 646.48 1184.74 646.48 1148.14 646.48 1111.53 646.48 1074.93ZM1052.58 1011.75C1059.84 1015.42 1066.25 1022.21 1072.07 1031.78 1077.78 1041.18 1082.13 1052.58 1085.35 1065.95 1088.51 1079.08 1090.03 1093.12 1090.03 1108.19 1090.03 1123.34 1088.42 1136.63 1085.11 1148.24 1081.73 1160.08 1077.2 1169.36 1071.36 1176.11 1065.39 1183.01 1058.87 1186.65 1051.57 1186.65 1044.45 1186.65 1037.94 1182.92 1032.13 1175.22 1026.2 1167.37 1021.8 1156.05 1018.51 1141.5 1015.16 1126.73 1013.64 1110.07 1013.64 1091.79 1013.64 1072.63 1015.18 1055.93 1018.56 1041.96 1021.88 1028.24 1026.36 1018.64 1032.37 1013.45 1038.24 1008.38 1045.03 1007.93 1052.58 1011.75ZM900.707 944.61C903.999 942.946 907.136 942.386 910.11 942.984 913.645 947.215 917.033 952.82 920.201 959.766 925.925 972.314 930.266 988.217 933.479 1007.44 936.653 1026.43 938.161 1047.09 938.161 1069.58 938.161 1092.18 936.566 1112.14 933.241 1129.63 929.87 1147.37 925.348 1161.23 919.487 1171.22 916.515 1176.29 913.415 1180.13 910.123 1182.72 906.831 1185.36 903.352 1186.65 899.702 1186.65 892.578 1186.65 886.176 1181.78 880.26 1172.36 874.454 1163.11 869.972 1150.27 866.638 1133.82 863.352 1117.61 861.771 1099.14 861.771 1078.24 861.771 1056.35 863.356 1036.09 866.691 1017.29 870.071 998.244 874.583 982.382 880.498 969.752 886.513 956.911 893.16 948.424 900.707 944.61Z" fill-rule="evenodd"/><text fill="#000000" fill-opacity="0" font-family="Arial,Arial_MSFontService,sans-serif" font-size="243.901" x="646.48" y="1156.17">KIMOTON</text><path d="M691 1209 1130.13 1209" stroke="#000000" stroke-width="13.75" stroke-miterlimit="8" fill="none" fill-rule="evenodd"/></g></svg>